Coordinates
version=1
nRows=8
nColumns=40
inDegrees=yes

Units are S.I. units (second, meters, Newtons, ...)
Angles are in degrees.

endheader
time	pelvis_tilt	pelvis_list	pelvis_rotation	pelvis_tx	pelvis_ty	pelvis_tz	hip_flexion_r	hip_adduction_r	hip_rotation_r	knee_angle_r	knee_angle_r_beta	ankle_angle_r	subtalar_angle_r	mtp_angle_r	hip_flexion_l	hip_adduction_l	hip_rotation_l	knee_angle_l	knee_angle_l_beta	ankle_angle_l	subtalar_angle_l	mtp_angle_l	lumbar_extension	lumbar_bending	lumbar_rotation	arm_flex_r	arm_add_r	arm_rot_r	elbow_flex_r	pro_sup_r	wrist_flex_r	wrist_dev_r	arm_flex_l	arm_add_l	arm_rot_l	elbow_flex_l	pro_sup_l	wrist_flex_l	wrist_dev_l
     58.41000000	     -5.98711748	     -6.12516010	      2.24664811	      0.97645559	      0.92778202	      0.50792392	     15.87200537	      3.15969916	    -19.27309358	     14.89585840	     14.89585840	      7.31347341	      4.14196312	     -4.96191250	     36.14818647	    -12.12354941	      5.43422520	     72.94674837	     72.94674837	      7.97318842	    -17.56998021	      7.86471284	    -11.65609110	      5.23256104	      6.30019341	     14.15470184	    -14.12900883	     -4.43858795	     35.00453779	     44.69224222	      0.00000000	      0.00000000	      5.75811088	     -7.30934885	     -1.60495263	     51.98576924	     45.05764076	      0.00000000	      0.00000000
     58.42114286	     -5.94241150	     -6.16755406	      2.50435538	      0.97538927	      0.92844472	      0.50848316	     14.95172319	      3.37635258	    -19.43197386	     14.17024126	     14.17024126	      7.49209838	      4.35816015	     -5.03718676	     37.66010144	    -12.04465619	      5.50323956	     72.13424893	     72.13424893	      8.00352547	    -17.65828087	      7.93634179	    -11.73104024	      5.24119325	      5.97728194	     16.89240826	    -14.16677079	     -4.46712942	     36.30552400	     44.68583758	      0.00000000	      0.00000000	      4.27630735	     -7.35836274	     -1.26195030	     49.37552831	     45.02587178	      0.00000000	      0.00000000
     58.43228571	     -5.88615420	     -6.23035152	      2.78062696	      0.97438886	      0.92905151	      0.50903135	     13.99482870	      3.61689803	    -19.67726233	     13.39501167	     13.39501167	      7.64148427	      4.69433122	     -5.13987610	     39.04244264	    -11.96190895	      5.55641535	     71.13828268	     71.13828268	      7.96646336	    -17.79486459	      8.13435040	    -11.80186353	      5.25497021	      5.74569563	     19.56766591	    -14.22517747	     -4.38948799	     37.61193822	     44.67119211	      0.00000000	      0.00000000	      3.13345237	     -7.30600263	     -0.87135505	     46.07783323	     44.98753946	      0.00000000	      0.00000000
     58.44342857	     -5.84649679	     -6.26050804	      2.99315036	      0.97336477	      0.92955683	      0.50952005	     13.12013941	      3.80390995	    -19.88454057	     12.72052560	     12.72052560	      7.73184709	      5.10889737	     -5.56913897	     40.28597878	    -11.85881221	      5.53558014	     69.92647912	     69.92647912	      7.99081536	    -17.80602850	      8.63625923	    -11.81603867	      5.26143265	      6.36250766	     21.72864015	    -14.89328646	     -3.95033925	     38.67116309	     44.68215362	      0.00000000	      0.00000000	      3.42720044	     -6.76967945	     -0.32965172	     40.20396512	     44.99158537	      0.00000000	      0.00000000
     58.45457143	     -5.78843909	     -6.30807702	      3.23268023	      0.97238434	      0.92996871	      0.50994402	     12.20623466	      4.04051847	    -20.00509259	     11.99190968	     11.99190968	      7.90506809	      5.34243082	     -5.56577215	     41.37171967	    -11.74102632	      5.51660334	     68.45528813	     68.45528813	      7.92224713	    -17.90866276	      9.04595251	    -11.95069931	      5.27313627	      6.14513901	     24.22706350	    -14.93496174	     -4.00262830	     40.23082644	     44.65799367	      0.00000000	      0.00000000	      2.07389115	     -6.79885573	     -0.05891294	     37.96492818	     44.95965483	      0.00000000	      0.00000000
     58.46571429	     -5.75486470	     -6.35710156	      3.45286277	      0.97143590	      0.93023926	      0.51027975	     11.33177078	      4.26384535	    -20.14115359	     11.28566367	     11.28566367	      8.09473461	      5.65771781	     -5.63982346	     42.32416984	    -11.62732181	      5.46304295	     66.69675991	     66.69675991	      7.88769188	    -17.93720379	      9.53547427	    -12.05336408	      5.30722818	      6.12713530	     26.58579475	    -15.08243244	     -3.94204551	     41.68786113	     44.63165566	      0.00000000	      0.00000000	      1.02825695	     -6.75117377	      0.25853873	     35.31599750	     44.92439825	      0.00000000	      0.00000000
     58.47685714	     -5.72667182	     -6.42334131	      3.63171370	      0.97053265	      0.93040942	      0.51055668	     10.46865814	      4.51247859	    -20.26726750	     10.58289568	     10.58289568	      8.24782430	      5.97485494	     -5.73842133	     43.09976733	    -11.52647779	      5.40065592	     64.61135749	     64.61135749	      7.87422979	    -17.92075745	     10.04647808	    -12.10614692	      5.29563997	      6.11766517	     28.83806694	    -15.23685027	     -3.78974169	     43.27590789	     44.59594807	      0.00000000	      0.00000000	      0.12201839	     -6.68903724	      0.60351796	     32.55264919	     44.88724242	      0.00000000	      0.00000000
     58.48800000	     -5.78615041	     -6.49691634	      3.77856135	      0.96958384	      0.93032045	      0.51069394	      9.75795208	      4.73269820	    -20.38948480	      9.98337889	      9.98337889	      8.35617699	      6.29921972	     -6.18586239	     43.80510286	    -11.41818909	      5.32666464	     62.20757553	     62.20757553	      7.86807688	    -17.80441886	     10.57310363	    -12.03756750	      5.33530359	      6.91275965	     30.29184026	    -16.30022363	     -2.99391710	     45.75114087	     44.54074738	      0.00000000	      0.00000000	      0.33047834	     -6.34841590	      1.24269533	     27.92843700	     44.87719152	      0.00000000	      0.00000000
